HIERARCHY
ROOT Pelvis
{
	OFFSET 0.000000 0.000000 0.000000
	CHANNELS 6 Xposition Yposition Zposition Zrotation Yrotation Xrotation 
	JOINT Left_hip
	{
		OFFSET 0.067986 -0.089946 -0.007639
		CHANNELS 3 Zrotation Yrotation Xrotation
		JOINT Left_knee
		{
			OFFSET 0.036308 -0.388288 -0.004016
			CHANNELS 3 Zrotation Yrotation Xrotation
			JOINT Left_ankle
			{
				OFFSET -0.012264 -0.413250 -0.042878
				CHANNELS 3 Zrotation Yrotation Xrotation
				JOINT Left_foot
				{
					OFFSET 0.024043 -0.058563 0.118570
					CHANNELS 3 Zrotation Yrotation Xrotation
					End Site
					{
						OFFSET 0.000000 0.000000 0.000000
					}
				}
			}
		}
	}
	JOINT Right_hip
	{
		OFFSET -0.065648 -0.089374 -0.003858
		CHANNELS 3 Zrotation Yrotation Xrotation
		JOINT Right_knee
		{
			OFFSET -0.042132 -0.395021 -0.006361
			CHANNELS 3 Zrotation Yrotation Xrotation
			JOINT Right_ankle
			{
				OFFSET 0.014805 -0.413264 -0.041054
				CHANNELS 3 Zrotation Yrotation Xrotation
				JOINT Right_foot
				{
					OFFSET -0.021758 -0.049013 0.121832
					CHANNELS 3 Zrotation Yrotation Xrotation
					End Site
					{
						OFFSET 0.000000 0.000000 0.000000
					}
				}
			}
		}
	}
	JOINT Spine1
	{
		OFFSET -0.002755 0.104406 -0.022277
		CHANNELS 3 Zrotation Yrotation Xrotation
		JOINT Spine2
		{
			OFFSET 0.004136 0.129393 -0.002186
			CHANNELS 3 Zrotation Yrotation Xrotation
			JOINT Spine3
			{
				OFFSET 0.001906 0.049304 0.025578
				CHANNELS 3 Zrotation Yrotation Xrotation
				JOINT Neck
				{
					OFFSET -0.004620 0.210958 -0.044063
					CHANNELS 3 Zrotation Yrotation Xrotation
					JOINT Head
					{
						OFFSET 0.003833 0.067393 0.052435
						CHANNELS 3 Zrotation Yrotation Xrotation
						End Site
						{
							OFFSET 0.000000 0.000000 0.000000
						}
					}
				}
				JOINT Left_collar
				{
					OFFSET 0.070771 0.116689 -0.037192
					CHANNELS 3 Zrotation Yrotation Xrotation
					JOINT Left_shoulder
					{
						OFFSET 0.080652 0.031596 -0.005617
						CHANNELS 3 Zrotation Yrotation Xrotation
						JOINT Left_elbow
						{
							OFFSET 0.262654 -0.015020 -0.027939
							CHANNELS 3 Zrotation Yrotation Xrotation
							JOINT Left_wrist
							{
								OFFSET 0.250438 0.010062 -0.000990
								CHANNELS 3 Zrotation Yrotation Xrotation
								JOINT Left_palm
								{
									OFFSET 0.081198 -0.010037 -0.013706
									CHANNELS 3 Zrotation Yrotation Xrotation
									End Site
									{
										OFFSET 0.000000 0.000000 0.000000
									}
								}
							}
						}
					}
				}
				JOINT Right_collar
				{
					OFFSET -0.072972 0.115556 -0.040762
					CHANNELS 3 Zrotation Yrotation Xrotation
					JOINT Right_shoulder
					{
						OFFSET -0.082917 0.031841 -0.006673
						CHANNELS 3 Zrotation Yrotation Xrotation
						JOINT Right_elbow
						{
							OFFSET -0.252882 -0.013790 -0.020410
							CHANNELS 3 Zrotation Yrotation Xrotation
							JOINT Right_wrist
							{
								OFFSET -0.255570 0.009163 -0.005138
								CHANNELS 3 Zrotation Yrotation Xrotation
								JOINT Right_palm
								{
									OFFSET -0.080804 -0.007282 -0.010415
									CHANNELS 3 Zrotation Yrotation Xrotation
									End Site
									{
										OFFSET 0.000000 0.000000 0.000000
									}
								}
							}
						}
					}
				}
			}
		}
	}
}
MOTION
Frames: 6
Frame Time: 0.100000
0.583981 0.126665 -0.489666 -176.816324 -27.484679 -17.466453 -0.449905 -1.267883 12.723956 -7.658989 -17.348758 7.261622 0.894195 9.931780 -15.180194 1.654038 -0.818970 -2.301373 -6.248642 -1.894678 -14.566430 4.713788 -0.555233 22.383456 13.747156 -9.848090 -6.071764 -11.119507 9.231107 1.550172 1.153793 -2.543401 11.307025 6.380624 0.024579 7.424596 3.262277 -1.305504 3.330335 -5.149347 17.388229 -1.860386 -8.033335 8.417339 6.244348 -17.610298 3.340338 4.244386 -34.648807 -6.070965 22.508461 -93.893714 -71.917831 112.376966 -7.473597 -17.410318 -26.886066 -5.610405 -1.909363 1.344760 30.355344 -2.553618 6.389947 30.810280 -4.557318 14.552293 5.329530 20.155093 3.247971 14.253011 1.898912 2.658731 6.312901 5.485425 -4.909928 
0.623059 0.126737 -0.442255 -177.268228 -23.622615 -16.172514 1.265526 -1.340477 15.452722 -8.260027 -20.338984 8.142246 0.354551 8.566826 -18.105207 0.158941 -1.856674 -0.261417 -6.162703 -1.396227 -15.183263 6.341387 0.839170 4.346146 15.062191 -5.843699 -5.313196 -11.233435 8.058334 5.589195 1.330464 -2.578721 10.763536 6.039879 0.014268 7.516827 3.487397 -1.093925 2.836185 -5.631319 17.586742 -2.008418 -7.391546 7.720894 4.838163 -17.787734 3.618982 4.086328 -34.588237 -5.552891 23.182273 -93.437180 -72.193339 112.421468 -6.992580 -18.262461 -26.146966 -6.765090 -2.047495 1.814998 30.758030 -3.080809 6.901036 30.786495 -5.313263 14.197902 6.516639 19.141783 5.403603 14.350642 2.500160 2.273056 8.158938 6.198716 -5.341433 
0.671353 0.125348 -0.387593 -176.961018 -19.020322 -16.565708 2.395951 -2.097248 17.788561 -9.789135 -23.471116 13.402017 -0.194851 7.581670 -18.660051 0.006589 -1.911857 -0.817512 -6.094783 -0.544431 -15.339599 6.297231 2.368213 6.674095 14.758774 -5.593303 -4.116877 -10.977612 8.157952 5.187756 0.720948 -2.708431 9.999215 6.110141 0.259813 8.364445 3.318519 -1.020359 2.538457 -5.232323 17.105163 -2.289689 -7.685022 6.699570 5.015281 -18.257622 3.359099 4.194406 -33.771372 -5.512489 23.257426 -94.009295 -72.269755 112.799072 -6.028343 -17.998900 -26.552213 -7.211235 -2.282958 1.909101 31.826502 -1.791356 6.751040 30.141593 -3.846660 14.275957 6.066509 18.655204 5.251421 12.808970 2.237355 3.602629 8.860818 6.470237 -5.463559 
0.724704 0.113439 -0.328466 -177.514028 -15.406845 -17.563448 4.803633 -3.204331 13.850449 -15.314844 -21.680746 30.399580 -4.591686 4.920135 -10.210423 3.788165 -1.348948 -7.643464 -5.796422 -1.193234 -14.372686 8.273212 1.519991 16.836346 12.179488 -6.989292 -4.654529 -11.360751 8.695895 3.036547 1.643951 -2.319820 9.194562 6.319174 0.630949 9.123222 2.886758 -0.570896 2.253584 -5.182743 16.022291 -2.771588 -8.322183 6.092489 7.514859 -18.794004 2.816561 4.284345 -34.431926 -5.085353 23.580917 -93.681089 -72.836982 112.299683 -5.725382 -16.443487 -27.605158 -8.326194 -2.468151 0.778309 32.455191 1.229355 6.767054 29.557254 0.083650 13.105545 4.452074 18.581294 1.650707 11.092340 1.112985 3.532987 9.221285 6.065679 -5.318791 
0.769587 0.098540 -0.279272 -178.841907 -11.655318 -19.087018 8.561897 -3.316528 0.745561 -17.583124 -10.791745 54.080747 -13.478231 4.124258 7.493676 7.997532 -0.549016 -16.214152 -3.803935 -3.164396 -6.533951 9.119164 1.164866 15.781012 4.487844 -6.610219 -8.291640 -6.698610 6.348173 4.164769 3.039047 -0.172148 10.548134 6.451927 -0.200677 9.509568 3.148923 0.182571 1.607821 -6.014354 14.070627 -3.899846 -7.581338 5.240218 8.186792 -19.063898 1.041681 4.024450 -34.050083 -4.742586 24.126100 -97.388136 -73.091239 116.351870 -5.803012 -16.341955 -29.037171 -8.350105 -1.652015 1.148803 32.542160 5.699080 7.128535 27.688149 5.955646 11.256974 3.473065 20.521627 0.052675 9.028208 0.879989 1.567683 8.304292 4.993311 -3.827786 
0.800588 0.083506 -0.235748 -178.659236 -11.029659 -19.762391 9.628594 -3.039515 -8.870201 -11.640240 -0.130262 62.929037 -9.612673 9.407883 3.941936 7.933489 -0.049698 -13.622031 -3.034145 -4.711306 0.542871 9.239750 2.417438 11.518445 1.952369 -5.346359 -10.050305 -3.641735 3.979582 5.386306 3.256892 3.017675 11.220734 6.428110 0.064779 9.411676 3.420445 1.919644 1.670753 -5.579903 12.507756 -4.123829 -7.578908 4.529355 8.715051 -19.278165 -0.712743 3.513926 -34.241288 -3.205988 24.412112 -97.020875 -73.382188 115.267830 -5.612895 -15.451077 -30.280894 -9.043769 -1.682075 0.714928 32.100751 10.795952 8.052075 24.309234 13.641173 8.737082 2.854011 21.053413 -1.189395 6.469252 0.723670 2.681154 9.171479 5.278211 -5.564608 
